<svg width="40" height="36" viewBox="0 0 40 36" fill="none" xmlns="http://www.w3.org/2000/svg">
  <path d="M9.27388 0L15.6178 11.9236L21.9618 23.8471L29.0955 10.6497L32.9172 35.7198H31.0828L28.1274 16.3567L21.9618 27.7707L7.18471 1.90735e-06L9.27388 0ZM30.6752 0H34.5987L40 35.7198H34.5987L34.4459 34.9554H34.4968L30.4204 8.25478L31.8471 5.55414L32.3057 8.61147L36.1783 33.8344H37.8599L36.9936 27.9745L33.172 3.10828L33.0191 1.88535H31.7962L30.1147 4.99363L29.9618 5.35032L25.4777 13.707L22.1147 20.0764L21.0446 18.1401L23.4395 13.707L30.6752 0ZM22.0127 31.3376L27.1083 21.6561L27.1592 22.0127L27.5669 24.7134L22.0127 35.2611L6.42038 5.91083L2.14013 33.8344H7.33758L9.07006 22.4204L9.47771 23.1847L10.5478 25.172L8.9172 35.7198H0L5.40127 0.152868L5.70701 0.662422L20.3312 28.2293L22.0127 31.3376ZM5.80891 32.5096H3.97452L7.28662 11.2102L20.3312 35.7197H18.242L8.25477 16.9172L5.80891 32.5096Z" fill="#6A0572"/>
</svg>